<?xml version="1.0" encoding="UTF-8"?>
<svg id="Layer_2" xmlns="http://www.w3.org/2000/svg" version="1.1" viewBox="0 0 41.6 28.2">
  <!-- Generator: Adobe Illustrator 29.1.0, SVG Export Plug-In . SVG Version: 2.1.0 Build 142)  -->
  <path fill="currentColor" d="M10.2,21c-.1-.8-.2-1.2-.4-1.7l-.4-1.3h-4.5l-.4,1.3c-.2.6-.3,1.1-.4,1.7H.3c.2-.5.4-.9.8-1.9l3.4-9.5c.3-.8.4-1.3.5-1.7h4.1c.1.5.2.9.5,1.7l3.4,9.5c.3.8.6,1.5.8,1.9h-3.7ZM7.1,10.5l-1.5,4.8h3l-1.5-4.8Z"/>
  <path fill="currentColor" d="M27.1,7.8c0,.7-.1,1.3-.1,2.4v5.5c0,3.6-2.2,5.7-6,5.7s-3.6-.6-4.5-1.6c-.9-1-1.4-2.4-1.4-4.1v-5.4c0-1.1,0-1.8-.1-2.4h3.4c0,.6-.1,1.2-.1,2.4v5.5c0,2,.9,2.9,2.8,2.9s2.8-1,2.8-2.9v-5.5c0-1.2,0-1.7-.1-2.4h3.4Z"/>
  <path fill="currentColor" d="M29.2,10.1c0-1.1,0-1.6-.1-2.3.6,0,1,0,2.3,0h3.3c2,0,3.5.5,4.6,1.6,1.2,1.1,1.7,2.8,1.7,4.9s-.6,3.9-1.8,5.1c-1.1,1-2.6,1.6-4.5,1.6h-3.3c-1.2,0-1.7,0-2.3,0,0-.7.1-1.2.1-2.3v-8.6ZM34.4,18.2c1,0,1.8-.3,2.3-.8.7-.7,1-1.7,1-3s-.3-2.3-.9-2.9c-.6-.6-1.3-.8-2.5-.8h-2.1v7.6h2.1Z"/>
</svg>