<svg width="45" height="45" viewBox="0 0 45 45" fill="none" xmlns="http://www.w3.org/2000/svg">
<path fill-rule="evenodd" clip-rule="evenodd" d="M35.0768 4.94518C34.9123 5.0466 34.6156 5.15734 34.4176 5.19118C34.2196 5.22511 33.3457 5.37575 32.4756 5.52605C31.6055 5.67634 30.7235 5.79965 30.5156 5.8C30.3078 5.80044 30.0112 5.86636 29.8564 5.9466C29.4524 6.15596 29.2177 6.21326 27.5537 6.50901C27.2637 6.56052 26.8286 6.62204 26.5869 6.64568C26.3452 6.66924 25.9892 6.76267 25.7959 6.85319C25.6025 6.94372 25.1081 7.06334 24.6973 7.11898C23.858 7.23262 23.1464 7.34116 22.3682 7.47432C22.0781 7.52398 21.6203 7.59367 21.3508 7.62927C21.0813 7.66486 20.7452 7.77121 20.6038 7.86552C20.4515 7.96712 20.024 8.08481 19.5557 8.15398C19.1206 8.21831 18.5471 8.30682 18.2812 8.35076C18.0154 8.39471 17.3628 8.48488 16.831 8.55115C16.2993 8.61742 15.7258 8.73423 15.5566 8.81087C15.3874 8.88742 15.1304 8.97127 14.9853 8.9972C14.8403 9.02313 14.4646 9.10812 14.1504 9.18599C13.8362 9.26386 13.1323 9.38321 12.5862 9.45133C12.0401 9.51936 11.4864 9.63054 11.3557 9.69839C11.225 9.76624 10.5051 9.92699 9.75585 10.0557C7.71081 10.4067 7.5483 10.442 7.39361 10.5691C7.31513 10.6335 7.14225 10.7407 7.00927 10.8072C6.87638 10.8738 6.76757 10.9542 6.76757 10.986C6.76757 11.0177 6.5322 11.2143 6.24444 11.4227C5.95678 11.6311 5.6627 11.9254 5.59089 12.0765C5.51917 12.2277 5.35851 12.5017 5.23397 12.6853C4.71444 13.4508 4.74609 12.6832 4.74609 24.5133C4.74609 35.2892 4.74767 35.3865 4.92863 35.9064C5.18097 36.6313 5.67087 37.4968 6.09969 37.9754C6.29779 38.1964 6.5786 38.5204 6.72362 38.6953C7.08275 39.1281 8.93047 40.0781 9.41343 40.0781C9.60178 40.0781 9.75585 40.1177 9.75585 40.166C9.75585 40.2242 14.0625 40.2539 22.5 40.2539C30.9375 40.2539 35.2441 40.2242 35.2441 40.166C35.2441 40.1177 35.4247 40.0781 35.6454 40.0781C36.2035 40.0781 37.563 39.3438 38.2764 38.657C38.5664 38.3778 38.8702 38.0988 38.9516 38.0371C39.033 37.9754 39.1946 37.7468 39.3106 37.5293C39.4266 37.3118 39.6344 36.936 39.7722 36.6943C39.9101 36.4526 40.0624 36.0769 40.1106 35.8594C40.2326 35.3102 40.2869 15.2029 40.1667 15.0827C40.118 15.0341 40.0781 14.9314 40.0781 14.8546C40.0781 14.7779 39.8889 14.5287 39.6576 14.3009C39.328 13.9762 39.1713 13.8848 38.9326 13.8779L38.6279 13.8691L38.9709 13.7886C39.8108 13.5915 40.2907 12.5601 40.0704 11.4258C40.0188 11.1599 39.9571 10.7644 39.9334 10.5469C39.9097 10.3294 39.8329 10.025 39.7627 9.87057C39.627 9.57218 39.4503 8.57989 39.2459 6.96851C39.1772 6.4264 39.0744 5.89246 39.0176 5.78198C38.8752 5.50451 38.396 5.00978 38.2699 5.00978C38.2128 5.00978 38.1168 4.95045 38.0566 4.87794C37.968 4.77107 37.7036 4.74751 36.6616 4.7534C35.5169 4.7599 35.3432 4.78091 35.0768 4.94518ZM37.8332 9.23907C38.1385 10.756 38.3732 12.0227 38.3547 12.0541C38.3098 12.1299 37.9099 12.2132 31.8603 13.4073C29.0083 13.9703 25.7998 14.6051 24.7303 14.818C23.6609 15.0309 22.6896 15.2051 22.5718 15.2051C22.4541 15.2051 22.2811 15.2632 22.1872 15.3341C22.0224 15.4587 22.0242 15.4633 22.2363 15.4673C22.3572 15.4696 26.0849 15.4703 30.52 15.4688L38.584 15.4661V25.073C38.584 33.4206 38.5663 34.7477 38.4492 35.1971C38.0782 36.6219 36.9266 37.8221 35.4366 38.3368L34.8486 38.5401H22.456H10.0635L9.4565 38.294C7.94179 37.6798 7.03212 36.7149 6.58827 35.2518C6.41645 34.6853 6.41319 34.4532 6.43631 24.3897L6.45995 14.1065L6.76177 13.5498C7.27391 12.6052 7.95954 12.1726 9.36034 11.9102C9.7954 11.8286 10.9226 11.6051 11.8652 11.4134C12.8079 11.2217 14.0735 10.9701 14.6777 10.8543C16.0376 10.5937 22.2957 9.35693 22.8955 9.2302C23.385 9.12675 27.9765 8.21822 29.751 7.8736C30.3794 7.75161 31.467 7.53523 32.168 7.39267C32.8689 7.2502 34.1938 6.98617 35.1123 6.806C36.0308 6.62573 36.8613 6.44863 36.958 6.41242C37.0547 6.37612 37.1662 6.37674 37.2059 6.41383C37.2455 6.45083 37.5278 7.72217 37.8332 9.23907ZM31.3809 9.09651C30.392 9.30112 29.5706 9.50582 29.5555 9.55135C29.5403 9.59688 30.2218 10.0993 31.0699 10.6679L32.6118 11.7017L34.5212 11.3287C35.5714 11.1235 36.4648 10.9265 36.5064 10.8909C36.5931 10.8167 33.4604 8.69512 33.2903 8.71278C33.229 8.7192 32.3697 8.89182 31.3809 9.09651ZM24.7851 10.4091C24.5193 10.4702 23.6987 10.635 22.9618 10.7753C22.1671 10.9265 21.6216 11.0711 21.6214 11.1305C21.6212 11.2161 24.0333 12.8786 24.5746 13.1659C24.7209 13.2435 25.1218 13.1914 26.4959 12.9162C27.451 12.7249 28.3071 12.5684 28.3984 12.5684C28.4897 12.5684 28.5644 12.5133 28.5644 12.4461C28.5644 12.3139 25.5536 10.2785 25.376 10.2905C25.3169 10.2946 25.051 10.3479 24.7851 10.4091ZM16.04 12.1359C15.3633 12.2762 14.5603 12.4412 14.2557 12.5024C13.951 12.5636 13.6994 12.6529 13.6964 12.7009C13.6934 12.7488 14.3814 13.2512 15.2254 13.8172L16.7599 14.8464L18.4654 14.505C19.4034 14.3172 20.2698 14.1508 20.3906 14.135C20.5115 14.1193 20.6103 14.0611 20.6103 14.0056C20.6103 13.8749 17.5895 11.8628 17.4083 11.873C17.3325 11.8772 16.7168 11.9955 16.04 12.1359ZM18.7051 17.0492L16.7997 17.0947L15.5159 18.3598C14.8097 19.0556 14.2448 19.6631 14.2603 19.7097C14.2776 19.7614 15.0604 19.7895 16.2629 19.7816L18.2373 19.7686L19.5339 18.4765C20.7196 17.295 20.9282 17.0309 20.6928 17.0108C20.6474 17.0068 19.753 17.0242 18.7051 17.0492ZM26.8324 17.0482L24.8806 17.0947L23.6006 18.364C22.8967 19.062 22.3328 19.6695 22.3477 19.7139C22.3631 19.7602 23.2152 19.789 24.3489 19.7816L26.3232 19.7686L27.6196 18.4767C28.7364 17.3638 29.1147 16.9043 28.8501 16.9823C28.8138 16.993 27.9059 17.0227 26.8324 17.0482ZM34.9183 17.0508L32.9665 17.0947L31.6866 18.364C30.9827 19.062 30.4188 19.6695 30.4336 19.7139C30.449 19.7602 31.3014 19.7891 32.4348 19.7818L34.4092 19.7691L35.7252 18.4559C36.4814 17.7013 37.0048 17.1138 36.9556 17.0748C36.9086 17.0374 35.9918 17.0266 34.9183 17.0508ZM9.51231 28.7183L9.53612 34.4971L9.74126 34.7847C9.85411 34.943 10.0998 35.1505 10.2871 35.2462C10.6215 35.4168 10.8466 35.4199 22.5052 35.4199C35.8094 35.4199 34.7497 35.4734 35.2543 34.7767L35.5078 34.4268V28.6831V22.9395H22.4981H9.48849L9.51231 28.7183ZM19.0283 29.1798V33.7501L15.1392 33.75H11.25V29.2245V24.6991L15.1392 24.6753C17.2782 24.6622 19.0283 24.642 19.0283 24.6305C19.0283 24.619 19.0283 26.6661 19.0283 29.1798ZM33.75 29.2017V33.75L28.4106 33.7435C23.1434 33.7371 23.076 33.7348 23.4228 33.5742C23.6162 33.4848 23.8226 33.4086 23.8814 33.405C23.9402 33.4013 24.1275 33.2593 24.2975 33.0892C24.4676 32.9191 24.9135 32.6402 25.2883 32.4694C25.6632 32.2986 26.0005 32.104 26.0379 32.0371C26.0754 31.9701 26.2834 31.8268 26.5002 31.7185C26.7172 31.6102 26.8945 31.489 26.8945 31.4493C26.8945 31.4095 26.9402 31.377 26.9961 31.377C27.0519 31.377 27.2201 31.2836 27.3697 31.1695C27.5192 31.0555 27.8466 30.855 28.0972 30.7239C28.9416 30.2825 29.2807 29.7793 29.2794 28.9697C29.2783 28.3081 29.0773 27.9215 28.4976 27.4664C28.2202 27.2487 27.9535 27.0704 27.905 27.0704C27.8565 27.0703 27.7048 26.9517 27.5679 26.8067C27.4311 26.6616 27.2671 26.543 27.2036 26.543C27.0413 26.543 26.0945 26.0355 25.9792 25.8867C25.9268 25.8189 25.6465 25.6368 25.3564 25.4821C25.0664 25.3272 24.75 25.1317 24.6533 25.0475C24.5566 24.9633 24.3708 24.8402 24.2405 24.7739C24.0368 24.6704 24.691 24.6533 28.8767 24.6533H33.75V29.2017ZM23.3605 26.332C24.7483 27.1828 26.1211 28.0275 26.4111 28.2092C26.7012 28.3909 27.0937 28.6317 27.2834 28.7444C27.5486 28.902 27.5993 28.9669 27.5031 29.0258C24.6414 30.7761 22.0359 32.3757 21.5011 32.7108C21.121 32.949 20.7934 33.1275 20.7734 33.1074C20.748 33.082 20.7184 25.561 20.7409 24.8291C20.7416 24.8049 20.7635 24.7852 20.7897 24.7852C20.8159 24.7852 21.9727 25.4813 23.3605 26.332Z" fill="currentColor"/>
</svg>
