<svg width="37" height="32" viewBox="0 0 37 32" fill="none" xmlns="http://www.w3.org/2000/svg">
<path d="M0.512207 0.522491L36.482 1.004V30.6015L0.512207 30.0278V0.522491Z" stroke="currentColor" stroke-width="1.02449" stroke-miterlimit="10"/>
<path d="M3.73938 4.55899V9.58924C3.73938 9.80438 3.98526 9.93756 4.15942 9.80438L10.9006 5.06099C11.1157 4.91756 11.0133 4.57948 10.7571 4.56924L4.01599 4.28238C3.86232 4.28238 3.73938 4.39507 3.73938 4.54875V4.55899Z" fill="currentColor" stroke="currentColor" stroke-width="0.512245" stroke-miterlimit="10"/>
<path d="M32.7939 22.0982V27.2719C32.7939 27.4256 32.671 27.5383 32.5276 27.5383H24.3624C24.096 27.5383 23.9936 27.1899 24.2189 27.0465L32.3841 21.8728C32.5583 21.7601 32.7939 21.8831 32.7939 22.0982Z" fill="currentColor" stroke="currentColor" stroke-width="0.512245" stroke-miterlimit="10"/>
<path d="M24.7722 5.03026L4.62051 16.4431C4.53855 16.4841 4.48733 16.5763 4.48733 16.6685L4.02631 26.2679C4.02631 26.4216 4.139 26.5445 4.29267 26.5548L13.5746 26.647C13.6258 26.647 13.677 26.6367 13.718 26.606L32.3125 15.0088C32.3842 14.9576 32.4354 14.8756 32.4354 14.7936L32.7735 5.47079C32.7735 5.31711 32.6608 5.19417 32.5071 5.19417L24.8952 5.00977C24.8952 5.00977 24.803 5.02001 24.7517 5.0405L24.7722 5.03026Z" fill="currentColor" stroke="currentColor" stroke-width="0.512245" stroke-miterlimit="10"/>
</svg>
