<?xml version="1.0" encoding="UTF-8"?>
<svg id="Layer_2" xmlns="http://www.w3.org/2000/svg" version="1.1" viewBox="0 0 41.6 28.2">
  <!-- Generator: Adobe Illustrator 29.1.0, SVG Export Plug-In . SVG Version: 2.1.0 Build 142)  -->
  <path fill="currentColor" d="M4.2,16.9c0,.6.2.9.4,1.3.4.5,1.1.8,2,.8,1.3,0,2.1-.6,2.1-1.5s-.3-1-.7-1.2c-.4-.2-.8-.3-2.6-.7-1.6-.3-2.1-.5-2.8-1-1.1-.8-1.7-1.9-1.7-3.3,0-2.6,2.1-4.3,5.5-4.3s3.8.7,4.8,2c.4.6.6,1.1.9,2.1l-3.6.4c-.2-1.1-.8-1.6-2.1-1.6s-1.8.6-1.8,1.4.3.8.8,1.1q.3.2,2.4.6c1.3.3,2.1.6,2.8,1,1.2.8,1.8,1.9,1.8,3.5s-.4,2.4-1.2,3.1c-1,1-2.5,1.5-4.5,1.5s-2.9-.3-3.8-.8c-.9-.5-1.5-1.2-1.8-2.2-.2-.4-.3-.8-.4-1.6l3.6-.3Z"/>
  <path fill="currentColor" d="M27.2,7.3c-.1.7-.1,1.4-.1,2.6v5.9c0,3.9-2.3,6.1-6.5,6.1s-3.9-.6-4.9-1.7c-1-1.1-1.5-2.6-1.5-4.5v-5.9c0-1.2,0-1.9-.1-2.6h3.7c-.1.6-.1,1.3-.1,2.6v5.9c0,2.2,1,3.2,3,3.2s3-1,3-3.2v-5.9c0-1.3,0-1.8-.1-2.6h3.7Z"/>
  <path fill="currentColor" d="M31.8,21.5c-1.3,0-1.8,0-2.5,0,.1-.7.1-1.3.1-2.5v-9.4c0-.9,0-1.6-.1-2.5.9,0,1.1,0,2.5,0h4.5c2.8,0,4.4,1.3,4.4,3.6s-.3,1.9-1,2.4c-.4.3-.7.5-1.4.8.8.2,1.3.4,1.8.8.7.6,1.1,1.6,1.1,2.7,0,2.5-1.7,3.9-4.7,3.9h-4.7ZM35.8,12.8c.9,0,1.5-.5,1.5-1.4s-.5-1.3-1.5-1.3h-3v2.7h3ZM32.8,18.7h3.2c1.1,0,1.7-.6,1.7-1.6s-.7-1.6-1.7-1.6h-3.1v3.2Z"/>
</svg>